<svg width="1024" height="1024" viewBox="0 0 1024 1024" fill="none" xmlns="http://www.w3.org/2000/svg">
  <defs>
    <linearGradient id="board" x1="190" y1="144" x2="850" y2="878" gradientUnits="userSpaceOnUse">
      <stop stop-color="#f1d18b"/>
      <stop offset="0.48" stop-color="#d7a85d"/>
      <stop offset="1" stop-color="#a36d38"/>
    </linearGradient>
    <radialGradient id="boardLight" cx="0" cy="0" r="1" gradientUnits="userSpaceOnUse" gradientTransform="translate(356 260) rotate(47) scale(560 510)">
      <stop stop-color="#fff0bd" stop-opacity="0.88"/>
      <stop offset="0.54" stop-color="#d6a65a" stop-opacity="0.16"/>
      <stop offset="1" stop-color="#70451f" stop-opacity="0.36"/>
    </radialGradient>
    <radialGradient id="blackStone" cx="0" cy="0" r="1" gradientUnits="userSpaceOnUse" gradientTransform="translate(333 324) rotate(62) scale(76)">
      <stop stop-color="#34393c"/>
      <stop offset="0.52" stop-color="#101316"/>
      <stop offset="1" stop-color="#030405"/>
    </radialGradient>
    <radialGradient id="whiteStone" cx="0" cy="0" r="1" gradientUnits="userSpaceOnUse" gradientTransform="translate(510 482) rotate(58) scale(82)">
      <stop stop-color="#ffffff"/>
      <stop offset="0.6" stop-color="#eee9dc"/>
      <stop offset="1" stop-color="#b7ad9a"/>
    </radialGradient>
    <linearGradient id="candidate" x1="620" y1="310" x2="756" y2="462" gradientUnits="userSpaceOnUse">
      <stop stop-color="#9ff3ba"/>
      <stop offset="1" stop-color="#4fcf8a"/>
    </linearGradient>
    <filter id="boardShadow" x="6%" y="8%" width="88%" height="88%" color-interpolation-filters="sRGB">
      <feDropShadow dx="0" dy="28" stdDeviation="30" flood-color="#000000" flood-opacity="0.22"/>
    </filter>
    <filter id="stoneShadow" x="-30%" y="-30%" width="160%" height="160%" color-interpolation-filters="sRGB">
      <feDropShadow dx="0" dy="11" stdDeviation="11" flood-color="#000000" flood-opacity="0.28"/>
    </filter>
    <filter id="candidateGlow" x="-60%" y="-60%" width="220%" height="220%" color-interpolation-filters="sRGB">
      <feDropShadow dx="0" dy="10" stdDeviation="13" flood-color="#54d990" flood-opacity="0.32"/>
    </filter>
  </defs>

  <g filter="url(#boardShadow)">
    <rect x="132" y="132" width="760" height="760" rx="170" fill="url(#board)"/>
    <rect x="132" y="132" width="760" height="760" rx="170" fill="url(#boardLight)"/>
    <rect x="145" y="145" width="734" height="734" rx="156" stroke="#fff0c7" stroke-opacity="0.64" stroke-width="18"/>
    <rect x="156" y="156" width="712" height="712" rx="144" stroke="#72441f" stroke-opacity="0.28" stroke-width="8"/>
  </g>

  <g stroke="#352513" stroke-width="10" stroke-linecap="round" opacity="0.82">
    <path d="M286 286H738"/>
    <path d="M286 399H738"/>
    <path d="M286 512H738"/>
    <path d="M286 625H738"/>
    <path d="M286 738H738"/>
    <path d="M286 286V738"/>
    <path d="M399 286V738"/>
    <path d="M512 286V738"/>
    <path d="M625 286V738"/>
    <path d="M738 286V738"/>
  </g>

  <g fill="#352513" opacity="0.9">
    <circle cx="399" cy="399" r="10"/>
    <circle cx="625" cy="399" r="10"/>
    <circle cx="512" cy="512" r="10"/>
    <circle cx="399" cy="625" r="10"/>
    <circle cx="625" cy="625" r="10"/>
  </g>

  <g filter="url(#stoneShadow)">
    <circle cx="399" cy="399" r="58" fill="url(#blackStone)"/>
    <circle cx="512" cy="512" r="58" fill="url(#whiteStone)"/>
    <circle cx="625" cy="625" r="58" fill="url(#blackStone)"/>
    <circle cx="399" cy="625" r="58" fill="url(#whiteStone)"/>
  </g>

  <path d="M324 724C390 757 474 767 556 750C635 734 697 696 744 638" stroke="#f8d879" stroke-width="16" stroke-linecap="round" opacity="0.86"/>

  <g filter="url(#candidateGlow)">
    <circle cx="690" cy="348" r="78" fill="#f9fff9" opacity="0.94"/>
    <circle cx="690" cy="348" r="62" fill="url(#candidate)"/>
    <path d="M689 311V385" stroke="#1e7f54" stroke-width="23" stroke-linecap="round"/>
    <path d="M662 328L689 311" stroke="#1e7f54" stroke-width="23" stroke-linecap="round"/>
  </g>

  <circle cx="301" cy="267" r="9" fill="#fff4d2" opacity="0.78"/>
  <circle cx="334" cy="244" r="5" fill="#fff4d2" opacity="0.52"/>
  <circle cx="775" cy="764" r="8" fill="#7be6a1" opacity="0.72"/>
</svg>
